<?xml version="1.0" standalone="no"?>
<!DOCTYPE svg PUBLIC "-//W3C//DTD SVG 20010904//EN"
 "http://www.w3.org/TR/2001/REC-SVG-20010904/DTD/svg10.dtd">
<svg version="1.0" xmlns="http://www.w3.org/2000/svg"
 width="256.000000pt" height="256.000000pt" viewBox="0 0 256.000000 256.000000"
 preserveAspectRatio="xMidYMid meet">

<g transform="translate(0.000000,256.000000) scale(0.100000,-0.100000)"
fill="#000000" stroke="none">
<path d="M1180 2554 c-378 -35 -727 -234 -940 -536 -156 -220 -234 -469 -233
-743 1 -542 337 -1014 851 -1199 260 -93 584 -93 844 0 429 155 735 508 829
957 30 142 30 352 0 494 -108 517 -508 914 -1016 1007 -87 16 -263 26 -335 20z
m987 -1120 c19 -9 46 -33 61 -52 23 -30 27 -45 27 -102 0 -57 -4 -72 -27 -102
-55 -72 0 -68 -948 -68 -948 0 -893 -4 -948 68 -23 30 -27 45 -27 102 0 58 4
71 29 104 52 69 2 65 944 66 771 0 857 -2 889 -16z"/>
</g>
</svg>
